<mxfile host="app.diagrams.net" modified="2022-03-23T10:38:52.846Z" agent="5.0 (Macintosh; Intel Mac OS X 10_15_7) AppleWebKit/537.36 (KHTML, like Gecko) Chrome/99.0.4844.74 Safari/537.36" etag="YA6jbJCEaRQFxWSngMR1" version="17.1.3" type="github">
  <diagram id="kgpKYQtTHZ0yAKxKKP6v" name="Page-1">
    <mxGraphModel dx="1234" dy="684" grid="1" gridSize="10" guides="1" tooltips="1" connect="1" arrows="1" fold="1" page="1" pageScale="1" pageWidth="850" pageHeight="1100" math="0" shadow="0">
      <root>
        <mxCell id="0" />
        <mxCell id="1" parent="0" />
        <mxCell id="4cNsJ_-1LNSkgjCMD2GF-35" value="事务" style="shape=umlFrame;whiteSpace=wrap;html=1;width=50;height=30;boundedLbl=1;verticalAlign=middle;align=left;spacingLeft=5;dashed=1;" vertex="1" parent="1">
          <mxGeometry x="230" y="200" width="540" height="260" as="geometry" />
        </mxCell>
        <mxCell id="3nuBFxr9cyL0pnOWT2aG-1" value="Blog" style="shape=umlLifeline;perimeter=lifelinePerimeter;container=1;collapsible=0;recursiveResize=0;rounded=0;shadow=0;strokeWidth=1;fillColor=#dae8fc;strokeColor=#6c8ebf;" parent="1" vertex="1">
          <mxGeometry x="240" y="80" width="120" height="460" as="geometry" />
        </mxCell>
        <mxCell id="3nuBFxr9cyL0pnOWT2aG-2" value="" style="points=[];perimeter=orthogonalPerimeter;rounded=0;shadow=0;strokeWidth=1;fillColor=#dae8fc;strokeColor=#6c8ebf;" parent="3nuBFxr9cyL0pnOWT2aG-1" vertex="1">
          <mxGeometry x="55" y="100" width="10" height="250" as="geometry" />
        </mxCell>
        <mxCell id="3nuBFxr9cyL0pnOWT2aG-5" value="BaseModel" style="shape=umlLifeline;perimeter=lifelinePerimeter;container=1;collapsible=0;recursiveResize=0;rounded=0;shadow=0;strokeWidth=1;fillColor=#f8cecc;strokeColor=#b85450;" parent="1" vertex="1">
          <mxGeometry x="456" y="80" width="100" height="330" as="geometry" />
        </mxCell>
        <mxCell id="3nuBFxr9cyL0pnOWT2aG-6" value="" style="points=[];perimeter=orthogonalPerimeter;rounded=0;shadow=0;strokeWidth=1;fillColor=#f8cecc;strokeColor=#b85450;" parent="3nuBFxr9cyL0pnOWT2aG-5" vertex="1">
          <mxGeometry x="45" y="142" width="10" height="210" as="geometry" />
        </mxCell>
        <mxCell id="4cNsJ_-1LNSkgjCMD2GF-8" style="edgeStyle=elbowEdgeStyle;rounded=0;orthogonalLoop=1;jettySize=auto;html=1;entryX=1.104;entryY=0.346;entryDx=0;entryDy=0;entryPerimeter=0;" edge="1" parent="3nuBFxr9cyL0pnOWT2aG-5" target="3nuBFxr9cyL0pnOWT2aG-6">
          <mxGeometry relative="1" as="geometry">
            <mxPoint x="55" y="220.8800000000001" as="targetPoint" />
            <mxPoint x="55.26999999999998" y="192" as="sourcePoint" />
            <Array as="points">
              <mxPoint x="120.26999999999998" y="192" />
              <mxPoint x="120.26999999999998" y="262" />
            </Array>
          </mxGeometry>
        </mxCell>
        <mxCell id="4cNsJ_-1LNSkgjCMD2GF-20" value="4:调用saveDocument()" style="edgeLabel;html=1;align=center;verticalAlign=middle;resizable=0;points=[];" vertex="1" connectable="0" parent="4cNsJ_-1LNSkgjCMD2GF-8">
          <mxGeometry x="-0.5177" relative="1" as="geometry">
            <mxPoint x="93" y="11" as="offset" />
          </mxGeometry>
        </mxCell>
        <mxCell id="4cNsJ_-1LNSkgjCMD2GF-23" style="edgeStyle=elbowEdgeStyle;rounded=0;orthogonalLoop=1;jettySize=auto;html=1;entryX=1.083;entryY=0.717;entryDx=0;entryDy=0;entryPerimeter=0;" edge="1" parent="3nuBFxr9cyL0pnOWT2aG-5">
          <mxGeometry relative="1" as="geometry">
            <mxPoint x="55.830000000000155" y="289.56999999999994" as="targetPoint" />
            <mxPoint x="55.909999999999854" y="269" as="sourcePoint" />
            <Array as="points">
              <mxPoint x="120.90999999999997" y="269" />
              <mxPoint x="120.90999999999997" y="339" />
            </Array>
          </mxGeometry>
        </mxCell>
        <mxCell id="4cNsJ_-1LNSkgjCMD2GF-24" value="6:调用saveCurrency()" style="edgeLabel;html=1;align=center;verticalAlign=middle;resizable=0;points=[];" vertex="1" connectable="0" parent="4cNsJ_-1LNSkgjCMD2GF-23">
          <mxGeometry x="-0.5177" relative="1" as="geometry">
            <mxPoint x="90" y="10" as="offset" />
          </mxGeometry>
        </mxCell>
        <mxCell id="4cNsJ_-1LNSkgjCMD2GF-25" style="edgeStyle=elbowEdgeStyle;rounded=0;orthogonalLoop=1;jettySize=auto;html=1;entryX=0.975;entryY=0.869;entryDx=0;entryDy=0;entryPerimeter=0;" edge="1" parent="3nuBFxr9cyL0pnOWT2aG-5" target="3nuBFxr9cyL0pnOWT2aG-6">
          <mxGeometry relative="1" as="geometry">
            <mxPoint x="55" y="327.36" as="targetPoint" />
            <mxPoint x="55.909999999999854" y="302" as="sourcePoint" />
            <Array as="points">
              <mxPoint x="120.90999999999997" y="302" />
              <mxPoint x="120.90999999999997" y="372" />
            </Array>
          </mxGeometry>
        </mxCell>
        <mxCell id="4cNsJ_-1LNSkgjCMD2GF-26" value="7:调用saveBizSnRule()" style="edgeLabel;html=1;align=center;verticalAlign=middle;resizable=0;points=[];" vertex="1" connectable="0" parent="4cNsJ_-1LNSkgjCMD2GF-25">
          <mxGeometry x="-0.5177" relative="1" as="geometry">
            <mxPoint x="93" y="11" as="offset" />
          </mxGeometry>
        </mxCell>
        <mxCell id="3nuBFxr9cyL0pnOWT2aG-8" value="2:调用insert/update" style="verticalAlign=bottom;endArrow=block;entryX=0;entryY=0;shadow=0;strokeWidth=1;" parent="1" target="3nuBFxr9cyL0pnOWT2aG-6" edge="1">
          <mxGeometry relative="1" as="geometry">
            <mxPoint x="305" y="222.00000000000023" as="sourcePoint" />
          </mxGeometry>
        </mxCell>
        <mxCell id="4cNsJ_-1LNSkgjCMD2GF-1" value="BlogController" style="shape=umlLifeline;perimeter=lifelinePerimeter;container=1;collapsible=0;recursiveResize=0;rounded=0;shadow=0;strokeWidth=1;fillColor=#fff2cc;strokeColor=#d6b656;" vertex="1" parent="1">
          <mxGeometry x="50" y="80" width="120" height="460" as="geometry" />
        </mxCell>
        <mxCell id="4cNsJ_-1LNSkgjCMD2GF-2" value="" style="points=[];perimeter=orthogonalPerimeter;rounded=0;shadow=0;strokeWidth=1;fillColor=#fff2cc;strokeColor=#d6b656;" vertex="1" parent="4cNsJ_-1LNSkgjCMD2GF-1">
          <mxGeometry x="55" y="80" width="10" height="350" as="geometry" />
        </mxCell>
        <mxCell id="4cNsJ_-1LNSkgjCMD2GF-6" value="1:调用save()" style="edgeStyle=none;rounded=0;orthogonalLoop=1;jettySize=auto;html=1;entryX=-0.183;entryY=0.01;entryDx=0;entryDy=0;entryPerimeter=0;" edge="1" parent="1" source="4cNsJ_-1LNSkgjCMD2GF-2" target="3nuBFxr9cyL0pnOWT2aG-2">
          <mxGeometry relative="1" as="geometry" />
        </mxCell>
        <mxCell id="4cNsJ_-1LNSkgjCMD2GF-9" value="ActiveRecord" style="shape=umlLifeline;perimeter=lifelinePerimeter;container=1;collapsible=0;recursiveResize=0;rounded=0;shadow=0;strokeWidth=1;fillColor=#d5e8d4;strokeColor=#82b366;" vertex="1" parent="1">
          <mxGeometry x="616" y="80" width="100" height="460" as="geometry" />
        </mxCell>
        <mxCell id="4cNsJ_-1LNSkgjCMD2GF-10" value="" style="points=[];perimeter=orthogonalPerimeter;rounded=0;shadow=0;strokeWidth=1;fillColor=#d5e8d4;strokeColor=#82b366;" vertex="1" parent="4cNsJ_-1LNSkgjCMD2GF-9">
          <mxGeometry x="45" y="152" width="10" height="20" as="geometry" />
        </mxCell>
        <mxCell id="4cNsJ_-1LNSkgjCMD2GF-13" style="edgeStyle=elbowEdgeStyle;rounded=0;orthogonalLoop=1;jettySize=auto;html=1;entryX=0.009;entryY=0.002;entryDx=0;entryDy=0;entryPerimeter=0;" edge="1" parent="1" source="3nuBFxr9cyL0pnOWT2aG-6" target="4cNsJ_-1LNSkgjCMD2GF-10">
          <mxGeometry relative="1" as="geometry">
            <mxPoint x="596" y="262" as="targetPoint" />
            <Array as="points">
              <mxPoint x="606" y="232" />
              <mxPoint x="506" y="242" />
            </Array>
          </mxGeometry>
        </mxCell>
        <mxCell id="4cNsJ_-1LNSkgjCMD2GF-14" value="3:调用insert/update" style="edgeLabel;html=1;align=center;verticalAlign=middle;resizable=0;points=[];" vertex="1" connectable="0" parent="4cNsJ_-1LNSkgjCMD2GF-13">
          <mxGeometry x="-0.0689" y="3" relative="1" as="geometry">
            <mxPoint x="5" y="-7" as="offset" />
          </mxGeometry>
        </mxCell>
        <mxCell id="4cNsJ_-1LNSkgjCMD2GF-18" style="edgeStyle=none;rounded=0;orthogonalLoop=1;jettySize=auto;html=1;entryX=1.322;entryY=0.13;entryDx=0;entryDy=0;entryPerimeter=0;dashed=1;" edge="1" parent="1" source="4cNsJ_-1LNSkgjCMD2GF-10" target="3nuBFxr9cyL0pnOWT2aG-6">
          <mxGeometry relative="1" as="geometry" />
        </mxCell>
        <mxCell id="4cNsJ_-1LNSkgjCMD2GF-19" value="return" style="edgeLabel;html=1;align=center;verticalAlign=middle;resizable=0;points=[];" vertex="1" connectable="0" parent="4cNsJ_-1LNSkgjCMD2GF-18">
          <mxGeometry x="0.0671" y="-1" relative="1" as="geometry">
            <mxPoint x="6" y="-1" as="offset" />
          </mxGeometry>
        </mxCell>
        <mxCell id="4cNsJ_-1LNSkgjCMD2GF-21" style="edgeStyle=elbowEdgeStyle;rounded=0;orthogonalLoop=1;jettySize=auto;html=1;entryX=1.017;entryY=0.524;entryDx=0;entryDy=0;entryPerimeter=0;" edge="1" parent="1" target="3nuBFxr9cyL0pnOWT2aG-6">
          <mxGeometry relative="1" as="geometry">
            <mxPoint x="511" y="337.36" as="targetPoint" />
            <mxPoint x="511.90999999999985" y="311.99999999999994" as="sourcePoint" />
            <Array as="points">
              <mxPoint x="576.91" y="312" />
              <mxPoint x="576.91" y="382" />
            </Array>
          </mxGeometry>
        </mxCell>
        <mxCell id="4cNsJ_-1LNSkgjCMD2GF-22" value="5:调用saveAttachment()" style="edgeLabel;html=1;align=center;verticalAlign=middle;resizable=0;points=[];" vertex="1" connectable="0" parent="4cNsJ_-1LNSkgjCMD2GF-21">
          <mxGeometry x="-0.5177" relative="1" as="geometry">
            <mxPoint x="96" y="10" as="offset" />
          </mxGeometry>
        </mxCell>
        <mxCell id="4cNsJ_-1LNSkgjCMD2GF-27" style="edgeStyle=none;rounded=0;orthogonalLoop=1;jettySize=auto;html=1;entryX=1.253;entryY=0.881;entryDx=0;entryDy=0;entryPerimeter=0;dashed=1;" edge="1" parent="1" source="3nuBFxr9cyL0pnOWT2aG-6">
          <mxGeometry relative="1" as="geometry">
            <mxPoint x="307.5300000000002" y="422.25" as="targetPoint" />
          </mxGeometry>
        </mxCell>
        <mxCell id="4cNsJ_-1LNSkgjCMD2GF-28" value="return" style="edgeLabel;html=1;align=center;verticalAlign=middle;resizable=0;points=[];" vertex="1" connectable="0" parent="4cNsJ_-1LNSkgjCMD2GF-27">
          <mxGeometry x="-0.0451" relative="1" as="geometry">
            <mxPoint x="-2" y="-11" as="offset" />
          </mxGeometry>
        </mxCell>
        <mxCell id="4cNsJ_-1LNSkgjCMD2GF-30" value="" style="edgeStyle=none;rounded=0;orthogonalLoop=1;jettySize=auto;html=1;entryX=0.96;entryY=0.759;entryDx=0;entryDy=0;entryPerimeter=0;dashed=1;" edge="1" parent="1">
          <mxGeometry relative="1" as="geometry">
            <mxPoint x="295" y="429.6500000000001" as="sourcePoint" />
            <mxPoint x="114.59999999999991" y="429.6500000000001" as="targetPoint" />
          </mxGeometry>
        </mxCell>
        <mxCell id="4cNsJ_-1LNSkgjCMD2GF-31" value="return" style="edgeLabel;html=1;align=center;verticalAlign=middle;resizable=0;points=[];" vertex="1" connectable="0" parent="4cNsJ_-1LNSkgjCMD2GF-30">
          <mxGeometry x="0.1883" y="1" relative="1" as="geometry">
            <mxPoint x="12" y="10" as="offset" />
          </mxGeometry>
        </mxCell>
      </root>
    </mxGraphModel>
  </diagram>
</mxfile>
